<svg width="27" height="17" viewBox="0 0 27 17" fill="none" xmlns="http://www.w3.org/2000/svg">
<path opacity="0.77" d="M25.8135 13.1097H25.7049C25.9869 12.7177 26.1155 12.272 26.0677 11.8099C25.9603 10.7718 24.9582 9.73487 24.0458 8.99274C24.0483 8.98691 24.051 8.98025 24.0535 8.97442C24.1713 8.68236 24.1072 8.34533 23.8895 8.11593C23.7156 7.93295 23.5208 7.75538 23.3109 7.58822C23.1393 7.45166 22.8906 7.48142 22.7555 7.65483C22.6202 7.82824 22.6496 8.0795 22.8212 8.21606C23.0029 8.36073 23.1704 8.51353 23.321 8.67257C23.289 8.75189 23.2486 8.84973 23.2013 8.96235C22.8402 9.81605 21.9019 11.8857 20.8128 13.1097H19.5086C19.6981 12.6365 19.9105 11.8272 20.1491 10.3869C20.3497 9.17551 20.5042 7.89818 20.5987 7.0374C20.8527 7.12587 21.1477 7.24078 21.4569 7.38587C21.5109 7.41106 21.5673 7.42293 21.6229 7.42293C21.7723 7.42293 21.9153 7.33716 21.9822 7.19124C22.0741 6.99098 21.9878 6.75345 21.7896 6.66061C21.3741 6.46576 20.9825 6.32088 20.67 6.21846C20.6455 5.93868 20.4764 5.68721 20.2183 5.56543C19.6576 5.29959 18.43 4.85349 16.5052 4.84974C15.859 4.85099 15.2917 4.9022 14.8017 4.97984V3.72125C14.8017 2.67811 13.9618 1.8294 12.9296 1.8294H11.1006V0.399687C11.1006 0.179026 10.9236 0 10.7051 0H5.08887C4.87031 0 4.69336 0.179026 4.69336 0.399687C4.69336 0.620347 4.87031 0.799373 5.08887 0.799373H10.3096V7.15793C9.8914 7.4221 9.48147 7.73851 9.12181 8.11634C8.90449 8.34554 8.84042 8.68236 8.95825 8.97442C8.96072 8.98025 8.9634 8.98691 8.96587 8.99295C8.14066 9.66388 7.24294 10.5759 6.99925 11.511H2.16211C2.0313 11.511 1.9248 11.4033 1.9248 11.2712V0.799373H3.375C3.59356 0.799373 3.77051 0.620347 3.77051 0.399687C3.77051 0.179026 3.59356 0 3.375 0H1.5293C1.31074 0 1.13379 0.179026 1.13379 0.399687V11.2712C1.13379 11.7803 1.4984 12.2044 1.97754 12.2927V13.1097H1.18652C0.532288 13.1097 0 13.6476 0 14.3088C0 14.9699 0.532288 15.5078 1.18652 15.5078H1.55566V15.6411C1.55566 16.3905 2.15881 17 2.90039 17H24.0996C24.8412 17 25.4443 16.3905 25.4443 15.6411V15.5078H25.8135C26.4677 15.5078 27 14.9699 27 14.3088C27 13.6476 26.4677 13.1097 25.8135 13.1097ZM23.7198 9.75651C24.6591 10.5532 25.2214 11.318 25.281 11.893C25.3267 12.3366 25.0641 12.7756 24.5579 13.1097H21.8351C22.6228 12.0574 23.2884 10.7233 23.7198 9.75651ZM19.8823 6.28903L19.864 6.46701C19.7826 7.25348 19.6108 8.78832 19.3731 10.2289C18.9811 12.6047 18.6793 13.0429 18.6185 13.1097H14.393C14.3312 13.0412 14.0298 12.6001 13.6386 10.2289C13.4009 8.78832 13.2289 7.25348 13.1475 6.4668L13.1445 6.43599L13.1442 6.43329L13.1294 6.28903C13.533 6.09772 14.6698 5.65265 16.505 5.6489C18.3419 5.65244 19.4786 6.09772 19.8823 6.28903ZM11.1101 2.62877H12.9294C13.5255 2.62877 14.0105 3.11901 14.0105 3.72125V5.14034C13.7004 5.21862 13.437 5.30397 13.2194 5.38578V3.93441C13.2194 3.65547 12.9947 3.42814 12.7185 3.42814H11.1101V2.62877ZM12.4284 4.22752V5.91932C12.4 5.97427 12.378 6.03235 12.3629 6.09272H11.1006V4.22752H12.4284ZM10.8864 7.73789C10.9002 7.73081 10.9137 7.72311 10.9265 7.71416L10.9313 7.71124C11.4526 7.40648 11.9804 7.1877 12.413 7.03719C12.5075 7.89797 12.662 9.17551 12.8627 10.3869C13.1014 11.8272 13.3136 12.6365 13.5031 13.1097H12.2C11.1078 11.8836 10.1707 9.81563 9.81065 8.96276C9.76307 8.84973 9.72269 8.75189 9.69221 8.67008C10.048 8.29641 10.4641 7.98894 10.8864 7.73789ZM9.29175 9.75672C9.72249 10.7226 10.3876 12.0564 11.177 13.1097H8.43338C7.95733 12.7881 7.70128 12.3645 7.72765 11.9327C7.72826 11.92 7.72929 11.9073 7.73074 11.893C7.79027 11.318 8.35263 10.5534 9.29175 9.75672ZM2.76855 12.3103H6.96156C7.01038 12.592 7.12594 12.8618 7.30083 13.1097H2.76855V12.3103ZM25.8135 14.7085H5.06909C4.85053 14.7085 4.67358 14.8875 4.67358 15.1082C4.67358 15.3288 4.85053 15.5078 5.06909 15.5078H24.6533V15.6411C24.6533 15.9496 24.4049 16.2006 24.0996 16.2006H2.90039C2.59511 16.2006 2.34668 15.9496 2.34668 15.6411V15.5078H3.375C3.59356 15.5078 3.77051 15.3288 3.77051 15.1082C3.77051 14.8875 3.59356 14.7085 3.375 14.7085H1.18652C0.968376 14.7085 0.791016 14.5292 0.791016 14.3088C0.791016 14.0883 0.968376 13.9091 1.18652 13.9091H25.8135C26.0316 13.9091 26.209 14.0883 26.209 14.3088C26.209 14.5292 26.0316 14.7085 25.8135 14.7085Z" fill="#EE7700"/>
</svg>
