<svg width="28" height="28" viewBox="0 0 28 28" fill="none" xmlns="http://www.w3.org/2000/svg">
<g opacity="0.77">
<path d="M27.8372 0.157775C27.6878 0.0103376 27.467 -0.038881 27.2694 0.0318845L4.5548 8.13092C3.76566 7.64836 2.76472 7.53538 1.84668 7.91551C0.322817 8.54677 -0.403486 10.3001 0.227715 11.8241C1.71625 15.4175 3.86541 18.634 6.61569 21.3843C9.36598 24.1346 12.5825 26.2838 16.1759 27.7723C16.5491 27.9268 16.9359 28 17.3168 28C18.4912 27.9999 19.6078 27.304 20.0844 26.1533C20.4051 25.379 20.3748 24.5457 20.0681 23.8301L27.9705 0.723953C28.0384 0.525329 27.9866 0.305267 27.8372 0.157775ZM7.99409 8.06579L10.4014 7.20753C10.6841 7.50863 10.8218 7.92317 10.7666 8.3424C10.718 8.71154 10.5285 9.03972 10.2332 9.2664C9.93779 9.49308 9.57204 9.59102 9.20263 9.54251C8.83354 9.4939 8.50542 9.30451 8.27874 9.00909C8.06989 8.73691 7.97052 8.40485 7.99409 8.06579ZM19.0739 25.7346C18.6735 26.7014 17.561 27.1621 16.5945 26.7616C9.59233 23.8613 4.13874 18.4076 1.23828 11.4054C1.04431 10.9372 1.04431 10.4214 1.23828 9.95305C1.43226 9.48476 1.79697 9.12005 2.26526 8.92608C2.73355 8.7321 3.24936 8.7321 3.71765 8.92608C4.18593 9.12005 4.55064 9.48476 4.74462 9.95305C5.98608 12.9503 7.77873 15.6332 10.0728 17.9272C12.3668 20.2212 15.0496 22.0138 18.0469 23.2553C19.0137 23.6557 19.4744 24.768 19.0739 25.7346ZM23.9325 9.15079C23.883 9.14958 23.8335 9.14674 23.784 9.14029C23.4149 9.09167 23.0868 8.90223 22.8602 8.60687C22.6335 8.3115 22.5355 7.94548 22.584 7.57639C22.6844 6.81438 23.3857 6.27615 24.148 6.37633C24.3832 6.40729 24.604 6.4985 24.7922 6.63725L23.9325 9.15079ZM25.1558 5.5739C24.8893 5.42882 24.5966 5.33219 24.2908 5.29194C22.9306 5.1124 21.6787 6.07364 21.4996 7.43366C21.4129 8.09242 21.5879 8.74555 21.9924 9.27274C22.3821 9.78051 22.9399 10.1122 23.5691 10.2134L22.4821 13.3918L21.2321 12.4326C20.9925 12.2488 20.6491 12.2939 20.4653 12.5335C20.2815 12.7732 20.3267 13.1164 20.5663 13.3003L22.1087 14.4838L19.2817 22.7501C19.0446 22.5439 18.7716 22.3715 18.4657 22.2448C12.6699 19.844 8.15602 15.3301 5.75541 9.53447C5.67195 9.3329 5.56827 9.14576 5.44867 8.97338L6.91314 8.45123C6.96427 8.89244 7.13364 9.31332 7.41107 9.67486C7.81554 10.202 8.40118 10.5401 9.05995 10.6268C9.17031 10.6413 9.28034 10.6486 9.38982 10.6486C9.93385 10.6486 10.4602 10.4708 10.899 10.1341C11.4263 9.72954 11.7643 9.14401 11.8511 8.48513C11.9289 7.89369 11.7909 7.30788 11.481 6.82258L18.279 4.39873L18.5366 5.02074C18.6239 5.23134 18.8275 5.35849 19.0421 5.35849C19.1118 5.35849 19.1827 5.34504 19.2512 5.31671C19.5302 5.20116 19.6627 4.88118 19.5471 4.60216L19.3105 4.03095L26.5686 1.44304L25.1558 5.5739Z" fill="#EE7700"/>
<path d="M5.90591 14.6712C5.90427 14.6687 5.89973 14.6617 5.89798 14.6592C5.73053 14.408 5.39163 14.3406 5.14034 14.5079C4.88949 14.6749 4.82146 15.0139 4.98749 15.2652C5.09222 15.4261 5.26743 15.5139 5.44643 15.5139C5.54771 15.5139 5.65014 15.4858 5.74157 15.427C5.99565 15.2636 6.06921 14.9253 5.90591 14.6712Z" fill="#EE7700"/>
<path d="M5.07418 13.3128C4.54126 12.3784 4.06219 11.4005 3.65034 10.4063C3.53479 10.1272 3.2147 9.99483 2.93585 10.1104C2.65678 10.2259 2.52433 10.5459 2.63994 10.8249C3.06924 11.8613 3.56864 12.8806 4.12416 13.8546C4.22505 14.0315 4.40968 14.1307 4.59966 14.1307C4.69154 14.1307 4.78467 14.1075 4.87009 14.0588C5.13243 13.9091 5.22386 13.5751 5.07418 13.3128Z" fill="#EE7700"/>
<path d="M17.1131 6.99933C17.0048 6.985 16.8947 6.97778 16.7859 6.97778C15.5436 6.97778 14.4843 7.90774 14.322 9.14094C14.143 10.5009 15.1037 11.753 16.4636 11.9321C16.572 11.9464 16.6821 11.9536 16.7908 11.9536C18.0331 11.9536 19.0924 11.0237 19.2548 9.79036C19.4337 8.43044 18.4731 7.17838 17.1131 6.99933ZM18.1704 9.64762C18.0794 10.3387 17.4863 10.8598 16.7908 10.8598C16.7297 10.8598 16.6676 10.8558 16.6064 10.8477C15.8443 10.7473 15.3061 10.0457 15.4064 9.28368C15.4974 8.59265 16.0904 8.07159 16.7859 8.07159C16.8471 8.07159 16.9092 8.07563 16.9704 8.08373C17.7324 8.18413 18.2707 8.88566 18.1704 9.64762Z" fill="#EE7700"/>
<path d="M16.9708 13.8016C16.8624 13.7872 16.7523 13.78 16.6436 13.78C15.4013 13.78 14.342 14.71 14.1797 15.9432C14.0929 16.6021 14.2679 17.2551 14.6724 17.7824C15.0769 18.3096 15.6625 18.6477 16.3213 18.7344C16.4296 18.7487 16.5397 18.7559 16.6483 18.7559C17.8907 18.7559 18.95 17.8259 19.1124 16.5926C19.2915 15.2327 18.3307 13.9807 16.9708 13.8016ZM18.0281 16.4499C17.9371 17.141 17.344 17.6621 16.6484 17.6621C16.5874 17.6621 16.5253 17.658 16.4641 17.65C16.095 17.6013 15.7669 17.4119 15.5402 17.1165C15.3135 16.8211 15.2155 16.4552 15.2641 16.086C15.3551 15.3949 15.9482 14.8738 16.6436 14.8738C16.7048 14.8738 16.7668 14.8779 16.828 14.886C17.59 14.9863 18.1283 15.6879 18.0281 16.4499Z" fill="#EE7700"/>
<path d="M13.3639 11.5362L11.683 11.3149C11.3837 11.2751 11.1089 11.4862 11.0695 11.7856C11.03 12.0851 11.2408 12.3598 11.5402 12.3992L13.2211 12.6205C13.2453 12.6238 13.2694 12.6253 13.2931 12.6253C13.5634 12.6253 13.7984 12.425 13.8346 12.1498C13.8741 11.8504 13.6634 11.5756 13.3639 11.5362Z" fill="#EE7700"/>
<path d="M12.5116 15.5719L12.3631 14.4441C12.3237 14.1446 12.0491 13.9337 11.7496 13.9733C11.4501 14.0127 11.2394 14.2873 11.2788 14.5868L11.4273 15.7147C11.4635 15.9899 11.6985 16.1902 11.9687 16.1902C11.9925 16.1902 12.0166 16.1887 12.0407 16.1855C12.3402 16.1461 12.551 15.8714 12.5116 15.5719Z" fill="#EE7700"/>
</g>
</svg>
