<svg width="28" height="28" viewBox="0 0 28 28" fill="none" xmlns="http://www.w3.org/2000/svg">
<g opacity="0.77" clip-path="url(#clip0_1_501)">
<path d="M7.46677 12.1335H6.53345V13.0669H7.46677V12.1335Z" fill="#EE7700"/>
<path d="M9.80002 11.2002H8.8667V12.1335H9.80002V11.2002Z" fill="#EE7700"/>
<path d="M12.6001 12.1335H11.6667V13.0669H12.6001V12.1335Z" fill="#EE7700"/>
<path d="M15.4 11.2002H14.4667V12.1335H15.4V11.2002Z" fill="#EE7700"/>
<path d="M18.6666 11.2002H17.7333V12.1335H18.6666V11.2002Z" fill="#EE7700"/>
<path d="M21 12.1335H20.0667V13.0669H21V12.1335Z" fill="#EE7700"/>
<path d="M15.4 2.80029H14.4667V3.73362H15.4V2.80029Z" fill="#EE7700"/>
<path d="M11.6667 6.53369H10.7334V7.46702H11.6667V6.53369Z" fill="#EE7700"/>
<path d="M14 7.46704H13.0667V8.40036H14V7.46704Z" fill="#EE7700"/>
<path d="M18.1999 6.53369H17.2666V7.46702H18.1999V6.53369Z" fill="#EE7700"/>
<path d="M23.5381 14.0104C24.5776 12.8693 24.4951 11.1016 23.354 10.0622C22.838 9.59208 22.1647 9.33215 21.4666 9.3335H20.2813C21.3148 8.18668 21.2229 6.4192 20.0761 5.38566C19.5614 4.92185 18.8928 4.66566 18.2 4.66688H18.1678C17.9312 2.80216 16.3463 1.4034 14.4667 1.40025H13.8269C13.4777 1.41128 13.1674 1.17865 13.0802 0.84026C13.0618 0.747861 13.0618 0.652662 13.0802 0.560263C13.1043 0.421315 13.065 0.278866 12.9729 0.172001C12.8796 0.063152 12.7434 0.000444397 12.6 0.000269399C11.4015 -0.0164137 10.3295 0.743194 9.948 1.87951C9.65377 2.74715 9.7978 3.70358 10.3344 4.44615C10.3912 4.52309 10.4519 4.59712 10.5164 4.66782H9.80007C8.2563 4.66519 7.00261 5.9145 6.99998 7.45833C6.99882 8.15115 7.25496 8.81976 7.71876 9.33443H6.53344C4.9899 9.33145 3.73621 10.5804 3.73324 12.1239C3.73189 12.822 3.99182 13.4952 4.46193 14.0113C3.0004 14.1185 1.86875 15.3346 1.86682 16.8001C1.86659 17.7192 2.32304 18.5785 3.08481 19.0928L6.09291 27.6873C6.15836 27.8745 6.33505 27.9999 6.53344 27.9999H21.4666C21.665 27.9999 21.8417 27.8745 21.9071 27.6873L24.9152 19.0928C25.677 18.5785 26.1335 17.7192 26.1332 16.8001C26.1318 15.3342 25.0001 14.1176 23.5381 14.0104ZM10.8361 2.17024C11.0428 1.57432 11.5434 1.12796 12.159 0.990525C12.159 0.999858 12.1623 1.00919 12.1637 1.01852C12.3339 1.79715 13.03 2.34752 13.8269 2.33358H14.4667C15.8324 2.33527 16.9984 3.32056 17.2279 4.66688H12.6C12.0024 4.66566 11.4412 4.37971 11.089 3.89689C10.7308 3.39599 10.6366 2.75281 10.8361 2.17024ZM9.80007 5.60021H18.2C19.2309 5.60021 20.0666 6.43594 20.0666 7.46685C20.0666 8.49776 19.2309 9.3335 18.2 9.3335H9.80007C8.76916 9.3335 7.93342 8.49776 7.93342 7.46685C7.93342 6.43594 8.76916 5.60021 9.80007 5.60021ZM6.53344 10.2668H21.4666C22.4975 10.2668 23.3333 11.1026 23.3333 12.1335C23.3333 13.1644 22.4975 14.0001 21.4666 14.0001H6.53344C5.50253 14.0001 4.66679 13.1644 4.66679 12.1335C4.66679 11.1026 5.50253 10.2668 6.53344 10.2668ZM6.86477 27.0666L3.79693 18.3013C4.06095 18.0428 4.40832 17.8866 4.77692 17.8608C5.22743 17.8312 5.66901 17.9958 5.99025 18.313L6.09851 18.4213L7.39163 27.0666H6.86477ZM8.33569 27.0666L7.02903 18.3634L7.2983 18.0941C7.90683 17.4874 8.89148 17.4874 9.50001 18.0941L9.80941 18.4026L10.2425 27.0666H8.33569ZM13.5334 27.0666H11.1777L10.7432 18.3835L11.0325 18.0941C11.6411 17.4874 12.6257 17.4874 13.2342 18.0941L13.5334 18.3933V27.0666ZM16.8224 27.0666H14.4667V18.3933L14.7658 18.0941C15.3743 17.4874 16.359 17.4874 16.9675 18.0941L17.2569 18.3835L16.8224 27.0666ZM17.7576 27.0666L18.1907 18.4026L18.4991 18.0941C19.1076 17.4874 20.0923 17.4874 20.7008 18.0941L20.9701 18.3634L19.6644 27.0666H17.7576ZM21.1353 27.0666H20.6084L21.9053 18.4213L22.0135 18.313C22.6167 17.7092 23.5936 17.7041 24.2031 18.3013L21.1353 27.0666ZM24.9488 17.7301L24.9432 17.725C24.8468 17.6219 24.7416 17.5271 24.6292 17.4417C24.6115 17.4282 24.5942 17.4142 24.5765 17.4011C24.4665 17.3216 24.3502 17.2512 24.2288 17.1907C24.2069 17.1795 24.1849 17.1692 24.1621 17.1585C24.0382 17.1012 23.9097 17.0544 23.778 17.0185C23.7593 17.0129 23.7402 17.0096 23.7211 17.0049C23.58 16.9683 23.436 16.9441 23.2908 16.9326C23.2315 16.9284 23.1727 16.9265 23.1139 16.9265C23.0551 16.9265 23.0015 16.9377 22.945 16.9415C22.8713 16.9466 22.798 16.9503 22.7252 16.9615C22.6435 16.9746 22.5647 16.9961 22.4849 17.0171C22.4135 17.0357 22.3421 17.0511 22.2725 17.0759C22.1853 17.1097 22.1001 17.1485 22.0173 17.1921C21.9622 17.2191 21.9053 17.2387 21.8525 17.2714C21.7167 17.3507 21.5888 17.4428 21.4704 17.5463L21.3607 17.4366C20.3875 16.466 18.8124 16.466 17.8393 17.4366L17.7333 17.5402L17.6274 17.4343C16.6542 16.4637 15.0791 16.4637 14.106 17.4343L14 17.5402L13.8941 17.4343C12.9209 16.4637 11.3458 16.4637 10.3727 17.4343L10.2667 17.5402L10.1608 17.4343C9.18764 16.4637 7.61254 16.4637 6.63937 17.4343L6.52971 17.5439C5.91721 16.9984 5.07255 16.7952 4.279 17.0026C4.25986 17.0073 4.24073 17.0105 4.22206 17.0161C4.09041 17.0521 3.9619 17.0989 3.838 17.1561C3.81513 17.1669 3.79133 17.1771 3.77127 17.1883C3.64982 17.2489 3.53356 17.3193 3.42361 17.3988C3.40587 17.4119 3.38861 17.4259 3.37087 17.4394C3.25841 17.5248 3.15335 17.6195 3.05681 17.7227L3.05121 17.7278C2.88642 17.4464 2.79974 17.1262 2.80015 16.8001C2.80015 15.7692 3.63588 14.9334 4.66679 14.9334H23.3333C24.3642 14.9334 25.1999 15.7692 25.1999 16.8001C25.2007 17.1269 25.114 17.448 24.9488 17.7301Z" fill="#EE7700"/>
</g>
<defs>
<clipPath id="clip0_1_501">
<rect width="28" height="28" fill="white"/>
</clipPath>
</defs>
</svg>
