<svg width="28" height="28" viewBox="0 0 28 28" fill="none" xmlns="http://www.w3.org/2000/svg">
<path d="M25.7634 21.2325C25.9519 21.1206 26.1253 20.9712 26.2695 20.7911L26.2897 20.7658C26.9803 19.903 27.1854 18.8505 26.8252 18.019C26.5476 17.3783 25.9742 16.9816 25.2519 16.9308C25.2458 16.9303 25.2415 16.93 25.2353 16.9298C25.2286 16.9293 25.2218 16.9289 25.2149 16.9286C24.8814 16.9076 24.5983 16.786 24.3958 16.5767C24.1894 16.3633 24.0696 16.0631 24.0495 15.7084C24.0142 15.0876 23.7884 14.5453 23.3967 14.1403C23.0014 13.7317 22.4707 13.4962 21.862 13.4592C21.527 13.4388 21.2426 13.3171 21.0395 13.1071C20.8332 12.894 20.7136 12.5939 20.6935 12.2392C20.6582 11.6184 20.4323 11.076 20.0403 10.6708C19.6448 10.2619 19.114 10.0265 18.506 9.99001C18.171 9.96967 17.8866 9.84794 17.6834 9.6379C17.477 9.42446 17.3572 9.12425 17.3371 8.77C17.3022 8.14939 17.0765 7.60703 16.6843 7.20154C16.289 6.79289 15.7583 6.55736 15.1496 6.52034C14.8146 6.5 14.5303 6.37838 14.3274 6.16867C14.1209 5.95529 14.0012 5.65502 13.981 5.30039C13.9458 4.67956 13.7199 4.1372 13.3279 3.73193C12.9328 3.32355 12.4022 3.08813 11.7936 3.05117C11.4585 3.03082 11.1741 2.90904 10.971 2.69905C10.7645 2.48567 10.6448 2.1854 10.6246 1.82963C10.5812 1.09018 10.187 0.426808 9.48827 0.145895C8.67204 -0.182266 7.65712 0.0522751 6.83975 0.757758C6.67559 0.899336 6.53799 1.06776 6.43329 1.25052L6.3962 1.21219C6.0907 0.896438 5.63243 0.799099 5.22907 0.964301C4.81843 1.13246 4.55316 1.53269 4.55316 1.98395V7.77218L0.152076 12.3694C-0.0511256 12.5817 -0.0506368 12.918 0.153216 13.1297L4.55311 17.6979V22.9465C4.55311 23.5523 5.03613 24.0451 5.62983 24.0451H8.68241C8.84065 25.0224 9.28593 25.9408 9.94441 26.6215C10.7465 27.4507 11.8128 27.9383 12.9468 27.9946C13.9185 28.043 14.8914 27.764 15.6939 27.2107C16.4964 27.7639 17.4688 28.0423 18.4404 27.9942C19.5743 27.9379 20.6404 27.4504 21.4422 26.6215C22.1204 25.9205 22.5604 25.02 22.7113 24.0451H25.9087C26.3405 24.0451 26.7291 23.7835 26.8986 23.3786C27.0714 22.9663 26.9836 22.4938 26.675 22.1748L25.7634 21.2325ZM1.29836 12.7478L4.55311 9.34801V16.1271L1.29836 12.7478ZM10.7224 25.8583C10.2567 25.377 9.92915 24.7366 9.78536 24.0451H13.7338C13.8756 24.9296 14.2596 25.7825 14.8479 26.4568C13.5207 27.2258 11.8361 27.0096 10.7224 25.8583ZM20.6643 25.8583C19.406 27.159 17.4189 27.2658 16.0446 26.1088C15.4223 25.5787 15.0048 24.847 14.8386 24.0451H21.6094C21.4711 24.7315 21.1454 25.3611 20.6643 25.8583ZM25.8988 22.9515H22.2224H14.221H9.16733H5.6396C5.63933 22.9503 5.63911 22.9486 5.63911 22.9466V17.4763V7.99294V1.99712L8.72292 5.18495C8.93215 5.40123 9.276 5.40582 9.49082 5.19507C9.70564 4.98431 9.71015 4.63811 9.50092 4.42177L7.31327 2.16036C7.29769 2.14423 7.289 2.1019 7.29122 2.05257C7.29649 1.93539 7.36638 1.74361 7.54629 1.58847C8.04826 1.1552 8.6526 0.987651 9.08561 1.16177C9.39416 1.28579 9.52139 1.57611 9.54034 1.89339C9.57564 2.51488 9.80138 3.05745 10.1931 3.46228C10.5879 3.87056 11.1188 4.10592 11.7283 4.14294C12.0625 4.16323 12.3467 4.28501 12.55 4.49516C12.7568 4.70892 12.8768 5.00898 12.8969 5.36295C12.9322 5.98449 13.1578 6.52701 13.5495 6.9319C13.9443 7.3399 14.475 7.57515 15.0843 7.61211C15.4186 7.6324 15.703 7.75435 15.9064 7.96472C16.1133 8.17853 16.2331 8.47831 16.2529 8.83207C16.2882 9.45356 16.514 9.99613 16.9057 10.401C17.3006 10.8093 17.8315 11.0447 18.4412 11.0817C18.7749 11.1017 19.059 11.2235 19.2625 11.4338C19.4694 11.6476 19.5893 11.9477 19.6094 12.3016C19.6446 12.9231 19.8703 13.4655 20.2617 13.8702C20.6567 14.2785 21.1876 14.5138 21.7969 14.5508C22.1312 14.5711 22.4156 14.693 22.619 14.9034C22.8256 15.1169 22.9454 15.4168 22.9655 15.7707C23.0008 16.3923 23.2265 16.9349 23.6182 17.3397C24.0132 17.748 24.544 17.9833 25.1534 18.0204C25.1573 18.0206 25.1602 18.0208 25.1641 18.021C25.1701 18.0213 25.1762 18.0217 25.1822 18.022C25.4976 18.0458 25.7155 18.1918 25.8301 18.4561C25.978 18.7977 25.9658 19.4278 25.4444 20.0793L25.4242 20.1046C25.2759 20.2899 25.0977 20.3616 24.9902 20.3666C24.9606 20.3679 24.9243 20.3645 24.9107 20.3505L12.8666 7.9009C12.6505 7.67741 12.281 7.68539 12.074 7.91687C11.885 8.12806 11.8917 8.46043 12.0887 8.66408L25.8971 22.938C25.8991 22.9401 25.9002 22.9415 25.9004 22.9416C25.9007 22.9441 25.9 22.9479 25.8988 22.9515Z" fill="#EE7700"/>
<path d="M10.9627 6.30442C10.7905 5.88097 10.1682 5.90554 10.0256 6.33913C9.88349 6.77115 10.362 7.15908 10.7505 6.93391C10.9649 6.80959 11.0579 6.53488 10.9627 6.30442Z" fill="#EE7700"/>
<path d="M17.0374 25.6917C17.1424 25.9437 17.4391 26.0673 17.6917 25.9627C17.9438 25.8583 18.0674 25.5606 17.9627 25.3084C17.8581 25.0564 17.5608 24.9325 17.3084 25.0373C17.0568 25.1419 16.9323 25.4395 17.0374 25.6917Z" fill="#EE7700"/>
<path d="M19.0375 25.6916C19.1425 25.9438 19.4391 26.0674 19.692 25.9627C19.9438 25.8584 20.0675 25.56 19.9626 25.3083C19.8575 25.0561 19.5615 24.9328 19.3086 25.0372C19.0565 25.1413 18.9324 25.4397 19.0375 25.6916Z" fill="#EE7700"/>
<path d="M12.7781 25.0825C12.4015 24.831 11.8966 25.1945 12.0186 25.6326C12.0741 25.832 12.2505 25.9796 12.4566 25.9981C12.6716 26.0173 12.8802 25.8896 12.9627 25.6905C13.0534 25.472 12.9735 25.2141 12.7781 25.0825Z" fill="#EE7700"/>
</svg>
