<svg width="28" height="25" viewBox="0 0 28 25" fill="none" xmlns="http://www.w3.org/2000/svg">
<path d="M20.2343 5.07541C20.8311 4.16308 20.9353 3.01386 20.5359 1.75199C20.2507 0.850819 19.8041 0.204757 19.7852 0.177734C19.6389 -0.032284 19.3781 -0.0601884 19.203 0.115463C19.0279 0.290967 19.0047 0.603057 19.1506 0.813074C19.1707 0.842301 20.587 2.9297 19.5837 4.46357C18.1391 6.67257 19.6794 9.58594 19.7456 9.70887C19.8248 9.85559 19.9576 9.93548 20.0932 9.93548C20.1701 9.93548 20.2479 9.90978 20.3172 9.85603C20.5087 9.7074 20.5639 9.4006 20.4399 9.17061C20.4272 9.14711 19.1546 6.72603 20.2343 5.07541Z" fill="#EE7700"/>
<path d="M23.8472 5.07541C24.444 4.16308 24.5482 3.01386 24.1489 1.75199C23.8635 0.850819 23.4169 0.204757 23.398 0.177734C23.2518 -0.032284 22.991 -0.0601884 22.8159 0.115463C22.641 0.29082 22.6176 0.60291 22.7635 0.812927C22.7779 0.833929 24.2019 2.92662 23.1966 4.46357C21.752 6.67257 23.2924 9.58594 23.3586 9.70887C23.4377 9.85559 23.5705 9.93548 23.706 9.93548C23.7829 9.93548 23.8607 9.90978 23.9301 9.85603C24.1218 9.7074 24.1768 9.4006 24.0529 9.17061C24.0402 9.14711 22.7676 6.72603 23.8472 5.07541Z" fill="#EE7700"/>
<path d="M3.97624 5.07541C4.57303 4.16308 4.67725 3.01386 4.27788 1.75199C3.99253 0.850819 3.54601 0.204757 3.52715 0.177734C3.38081 -0.032284 3.1202 -0.0601884 2.94495 0.115463C2.77006 0.29082 2.74667 0.60291 2.89253 0.812928C2.9071 0.833929 4.33103 2.92662 3.32582 4.46357C1.88095 6.67257 3.42134 9.5858 3.48772 9.70887C3.56683 9.85559 3.69959 9.93548 3.83516 9.93548C3.91207 9.93548 3.98984 9.90978 4.05915 9.85603C4.25081 9.7074 4.3058 9.40045 4.18174 9.17061C4.16913 9.14711 2.89645 6.72603 3.97624 5.07541Z" fill="#EE7700"/>
<path d="M7.58914 5.07541C8.18591 4.16308 8.29013 3.01386 7.89089 1.75199C7.60567 0.850819 7.15904 0.204757 7.14018 0.177734C6.99384 -0.032284 6.73323 -0.0601884 6.55798 0.115463C6.3831 0.29082 6.35971 0.60291 6.50557 0.812928C6.52014 0.833929 7.94404 2.92662 6.93873 4.46357C5.49388 6.67257 7.03425 9.5858 7.1005 9.70887C7.17962 9.85559 7.31237 9.93548 7.44794 9.93548C7.52485 9.93548 7.60261 9.90978 7.67205 9.85603C7.86371 9.7074 7.91869 9.40045 7.79464 9.17061C7.78202 9.14711 6.50936 6.72603 7.58914 5.07541Z" fill="#EE7700"/>
<path d="M26.4629 20.5012H25.4807C25.2501 14.3581 20.7266 9.36994 15.0209 8.84322V8.34175C15.6002 7.97319 15.96 7.31253 15.96 6.57804C15.96 5.44115 15.09 4.51611 14.021 4.51611C14.014 4.51611 13.9861 4.51611 13.9791 4.51611C12.91 4.51611 12.0402 5.44115 12.0402 6.57804C12.0402 7.31253 12.4 7.97334 12.9791 8.34175V8.84322C7.2735 9.36994 2.74992 14.358 2.5193 20.5012H1.53713C0.689539 20.5012 0 21.2345 0 22.1358V22.7515C0 23.6535 0.689539 24.3871 1.53699 24.3871H26.463C27.3106 24.3871 28 23.6535 28 22.7515V22.1358C27.9999 21.2345 27.3103 20.5012 26.4629 20.5012ZM12.966 6.57804C12.966 5.98421 13.4204 5.50097 13.9789 5.50097C13.986 5.50097 14.0137 5.50097 14.0207 5.50097C14.5792 5.50097 15.0336 5.98421 15.0336 6.57804C15.0336 7.02203 14.7804 7.41481 14.3884 7.57837C14.2111 7.65234 14.0947 7.83429 14.0947 8.0368V8.79712H13.9049V8.0368C13.9049 7.83429 13.7883 7.65249 13.6112 7.57837C13.2192 7.41467 12.966 7.02203 12.966 6.57804ZM26.4629 23.4021H1.53685C1.1999 23.4021 0.925925 23.1101 0.925925 22.7513V22.1356C0.925925 21.7774 1.20004 21.486 1.53685 21.486H2.29814C2.3024 21.4862 2.30637 21.4868 2.31063 21.4868H18.9389C19.1945 21.4868 19.4019 21.2663 19.4019 20.9943C19.4019 20.7225 19.1945 20.5019 18.9389 20.5019H3.4466C3.68888 14.5618 8.29724 9.80576 13.9362 9.78183H14.0635C19.7026 9.80576 24.3107 14.5617 24.5531 20.5019H21.9338C21.6781 20.5019 21.4708 20.7225 21.4708 20.9943C21.4708 21.2663 21.6781 21.4868 21.9338 21.4868L25.5095 21.486H26.4627C26.7997 21.486 27.0737 21.7774 27.0737 22.1356V22.7513H27.0738C27.0738 23.1101 26.7997 23.4021 26.4629 23.4021Z" fill="#EE7700"/>
</svg>
