<svg width="14" height="14" viewBox="0 0 14 14" fill="none" xmlns="http://www.w3.org/2000/svg">
<g clip-path="url(#clip0_1_398)">
<path d="M2.81641 6.05889C3.93641 8.26 5.74085 10.0567 7.94197 11.1844L9.65308 9.47333C9.86308 9.26333 10.1742 9.19333 10.4464 9.28667C11.3175 9.57444 12.2586 9.73 13.2231 9.73C13.6509 9.73 14.0009 10.08 14.0009 10.5078V13.2222C14.0009 13.65 13.6509 14 13.2231 14C5.91974 14 0.000854492 8.08111 0.000854492 0.777778C0.000854492 0.35 0.350854 0 0.778632 0H3.50085C3.92863 0 4.27863 0.35 4.27863 0.777778C4.27863 1.75 4.43419 2.68333 4.72197 3.55444C4.80752 3.82667 4.7453 4.13 4.52752 4.34778L2.81641 6.05889Z" fill="#1F1F1F"/>
<path d="M2.81641 6.05889C3.93641 8.26 5.74085 10.0567 7.94197 11.1844L9.65308 9.47333C9.86308 9.26333 10.1742 9.19333 10.4464 9.28667C11.3175 9.57444 12.2586 9.73 13.2231 9.73C13.6509 9.73 14.0009 10.08 14.0009 10.5078V13.2222C14.0009 13.65 13.6509 14 13.2231 14C5.91974 14 0.000854492 8.08111 0.000854492 0.777778C0.000854492 0.35 0.350854 0 0.778632 0H3.50085C3.92863 0 4.27863 0.35 4.27863 0.777778C4.27863 1.75 4.43419 2.68333 4.72197 3.55444C4.80752 3.82667 4.7453 4.13 4.52752 4.34778L2.81641 6.05889Z" fill="#1F1F1F"/>
</g>
<defs>
<clipPath id="clip0_1_398">
<rect width="14" height="14" fill="white" transform="translate(0.000854492)"/>
</clipPath>
</defs>
</svg>
