<svg width="15" height="19" viewBox="0 0 15 19" fill="none" xmlns="http://www.w3.org/2000/svg">
<path d="M6.69857 17.6859C1.40125 10.2806 0.417969 9.52062 0.417969 6.79907C0.417969 3.07114 3.55196 0.0490723 7.41797 0.0490723C11.284 0.0490723 14.418 3.07114 14.418 6.79907C14.418 9.52062 13.4347 10.2806 8.13736 17.6859C7.78973 18.1702 7.04617 18.1701 6.69857 17.6859ZM7.41797 9.61157C9.02881 9.61157 10.3346 8.35238 10.3346 6.79907C10.3346 5.24576 9.02881 3.98657 7.41797 3.98657C5.80713 3.98657 4.5013 5.24576 4.5013 6.79907C4.5013 8.35238 5.80713 9.61157 7.41797 9.61157Z" fill="white"/>
</svg>
