<svg width="38" height="38" viewBox="0 0 38 38" fill="none" xmlns="http://www.w3.org/2000/svg">
<path d="M34.0418 6H3.95832C1.7765 6 0 7.75312 0 9.90629V27.0938C0 29.2469 1.7765 31 3.95832 31H34.0417C36.2235 31 38 29.2469 38 27.0938V9.90629C38.0001 7.75312 36.2236 6 34.0418 6ZM36.4168 27.0937C36.4168 28.3859 35.3512 29.4375 34.0418 29.4375H3.95832C2.64887 29.4375 1.58331 28.3859 1.58331 27.0937V9.90629C1.58331 8.61408 2.64887 7.56255 3.95832 7.56255H34.0417C35.3511 7.56255 36.4167 8.61408 36.4167 9.90629V27.0937H36.4168Z" fill="#2F2F2F"/>
<path d="M37.2082 11H0.79169C0.354691 11 0 11.336 0 11.75V16.25C0 16.664 0.354691 17 0.79169 17H37.2083C37.6453 17 38 16.664 38 16.25V11.75C37.9999 11.336 37.6452 11 37.2082 11ZM36.4166 15.5H1.58331V12.5H36.4165V15.5H36.4166Z" fill="#2F2F2F"/>
<path d="M15.2143 22H5.78574C5.35202 22 5 22.448 5 23C5 23.5521 5.35202 24 5.78574 24H15.2143C15.648 24 16 23.552 16 23C16 22.4479 15.648 22 15.2143 22Z" fill="#2F2F2F"/>
<path d="M15.2143 25H5.78574C5.35202 25 5 25.448 5 26C5 26.552 5.35202 27 5.78574 27H15.2143C15.648 27 16 26.552 16 26C15.9999 25.448 15.648 25 15.2143 25Z" fill="#2F2F2F"/>
<path d="M30.75 21H29.25C28.0095 21 27 22.0095 27 23.25V24.75C27 25.9905 28.0095 27 29.25 27H30.75C31.9905 27 33 25.9905 33 24.75V23.25C33 22.0096 31.9905 21 30.75 21ZM31.5 24.7501C31.5 25.1641 31.164 25.5001 30.75 25.5001H29.25C28.836 25.5001 28.5 25.1641 28.5 24.7501V23.2501C28.5 22.8361 28.836 22.5001 29.25 22.5001H30.75C31.164 22.5001 31.5 22.8361 31.5 23.2501V24.7501Z" fill="#2F2F2F"/>
</svg>
