<svg width="44" height="44" viewBox="0 0 44 44" fill="none" xmlns="http://www.w3.org/2000/svg">
<path d="M35.6211 16.2309H32.8509L33.6856 6.69675C33.6871 6.67948 33.6874 6.66246 33.6875 6.64545C33.6875 6.644 33.6876 6.64263 33.6876 6.64117C33.6876 6.64092 33.6876 6.64075 33.6876 6.64049C33.6876 6.38099 33.5303 6.15228 33.299 6.05284C33.297 6.05199 33.2952 6.05096 33.2932 6.0501C33.2788 6.04412 33.264 6.03899 33.249 6.03403C33.2434 6.03223 33.2381 6.03001 33.2325 6.0283C33.2203 6.02462 33.2078 6.02172 33.1953 6.01872C33.1865 6.01667 33.1781 6.01419 33.1693 6.01248C33.1583 6.01035 33.147 6.00898 33.1358 6.00735C33.1253 6.00581 33.115 6.00402 33.1045 6.00308C33.1027 6.00291 33.101 6.00257 33.0992 6.00239C33.0879 6.00137 33.0767 6.00154 33.0654 6.00111C33.0579 6.00086 33.0505 6 33.0429 6H33.0348C33.0342 6 33.0335 6 33.0329 6H19.8525C19.4967 6 19.208 6.28728 19.208 6.64126C19.208 6.99438 19.4967 7.28252 19.8525 7.28252H32.3404L31.0577 21.9353C31.0575 21.9364 31.0575 21.9375 31.0573 21.9387L30.7337 25.6358H8.33752L8.71212 21.7884H12.9764C13.3325 21.7884 13.621 21.5013 13.621 21.1472C13.621 20.793 13.3325 20.5059 12.9764 20.5059H8.83707L9.62805 12.3837H16.415C16.771 12.3837 17.0595 12.0966 17.0595 11.7424C17.0595 11.3883 16.771 11.1012 16.415 11.1012H9.753L10.1249 7.28252H17.2744C17.6293 7.28252 17.9189 6.99438 17.9189 6.64126C17.9189 6.28728 17.6293 6 17.2744 6H9.53996C9.53962 6 9.53936 6.00009 9.53901 6.00009C9.23625 6 8.97363 6.21204 8.91012 6.506C8.90969 6.50814 8.90892 6.51019 8.90849 6.51232C8.90522 6.52831 8.90307 6.54464 8.90092 6.56106C8.90032 6.56628 8.89921 6.57124 8.89869 6.57645C8.8986 6.57748 8.89835 6.57842 8.89826 6.57944L8.45792 11.1012H0.644534C0.288493 11.1012 0 11.3883 0 11.7424C0 12.0966 0.288493 12.3837 0.644534 12.3837H8.33296L7.54199 20.5059H5.24238C4.88634 20.5059 4.59785 20.793 4.59785 21.1472C4.59785 21.5013 4.88634 21.7884 5.24238 21.7884H7.41712L6.9864 26.2106C6.98632 26.2113 6.98632 26.212 6.98623 26.2126L6.3203 33.0509C6.32021 33.0517 6.32013 33.0525 6.32004 33.0532L6.31978 33.0557C6.31892 33.0646 6.31901 33.0733 6.31849 33.0822C6.31789 33.094 6.31669 33.1056 6.31669 33.1175C6.31669 33.118 6.31677 33.1186 6.31677 33.1192C6.31677 33.1357 6.31798 33.1519 6.31918 33.1681C6.3197 33.1734 6.31952 33.1787 6.32013 33.1838C6.32185 33.2004 6.32468 33.2167 6.32769 33.233C6.32855 33.2377 6.32898 33.2426 6.32992 33.2473C6.33242 33.2596 6.33594 33.2715 6.3392 33.2836C6.34144 33.292 6.34324 33.3007 6.34582 33.309C6.3466 33.3113 6.34763 33.3135 6.34831 33.3159C6.37951 33.4113 6.43245 33.497 6.50154 33.5669C6.50283 33.5682 6.50386 33.5697 6.50515 33.5709C6.51203 33.5777 6.5195 33.5839 6.52672 33.5904C6.57115 33.6309 6.62134 33.6653 6.67625 33.6922C6.68768 33.6978 6.69894 33.7037 6.71063 33.7086C6.71415 33.7101 6.71793 33.7112 6.72154 33.7125C6.7377 33.7189 6.75394 33.7251 6.7707 33.7303C6.77225 33.7307 6.77371 33.731 6.77525 33.7315C6.79433 33.7372 6.81358 33.7421 6.83326 33.7461C6.83584 33.7466 6.8385 33.7468 6.841 33.7473C6.85973 33.7508 6.87855 33.7538 6.89771 33.7557C6.89814 33.7557 6.89849 33.7558 6.89892 33.7559C6.92006 33.7579 6.94103 33.759 6.96182 33.759C6.96208 33.759 6.96243 33.7589 6.96277 33.7589H9.83206C10.1489 36.1489 12.2084 38 14.6959 38C17.1832 38 19.2427 36.1489 19.5595 33.7589H29.8978C30.2147 36.1489 32.2741 38 34.7615 38C37.2488 38 39.3085 36.1489 39.6254 33.7589H42.4954C42.4958 33.7589 42.4963 33.759 42.4968 33.759C42.5183 33.759 42.5394 33.7577 42.5604 33.7556C42.5642 33.7553 42.5678 33.7545 42.5715 33.7541C42.5883 33.7521 42.605 33.7498 42.6213 33.7466C42.6283 33.7452 42.6351 33.7433 42.6421 33.7417C42.6547 33.7388 42.6674 33.7357 42.6798 33.732C42.6882 33.7295 42.6964 33.7266 42.7047 33.7238C42.7152 33.7202 42.7258 33.7165 42.7362 33.7123C42.7451 33.7088 42.7536 33.7049 42.7623 33.7011C42.7718 33.6967 42.7812 33.6923 42.7904 33.6876C42.7992 33.6831 42.8076 33.6785 42.816 33.6737C42.8249 33.6686 42.8337 33.6633 42.8423 33.6578C42.8504 33.6527 42.8585 33.6475 42.8662 33.642C42.875 33.6359 42.8833 33.6295 42.8918 33.623C42.8989 33.6175 42.906 33.612 42.9129 33.6062C42.9217 33.5987 42.9301 33.591 42.9385 33.583C42.9443 33.5774 42.9504 33.572 42.9561 33.5662C42.965 33.5571 42.9736 33.5475 42.9821 33.5379C42.9866 33.5326 42.9913 33.5276 42.9957 33.5223C43.0052 33.5107 43.0138 33.4987 43.0224 33.4866C43.0253 33.4824 43.0286 33.4785 43.0314 33.4742C43.0419 33.4586 43.0518 33.4425 43.0609 33.4259C43.0616 33.4249 43.0622 33.424 43.0627 33.4229C43.0724 33.4051 43.0813 33.3869 43.0893 33.368C43.0916 33.3627 43.0933 33.3571 43.0954 33.3517C43.1007 33.3385 43.1058 33.3252 43.1102 33.3114C43.113 33.3026 43.1151 33.2934 43.1176 33.2844C43.1204 33.2737 43.1234 33.2631 43.1258 33.2523C43.128 33.2426 43.1294 33.2327 43.131 33.2229C43.1325 33.2142 43.1343 33.2058 43.1355 33.197C43.1628 32.9791 43.6675 28.9504 43.8929 26.3453C43.8932 26.3428 43.8933 26.3403 43.8935 26.3378C43.9584 25.5868 44 24.9545 44 24.5673C44 19.9707 40.2412 16.2309 35.6211 16.2309ZM32.7386 17.5136H35.3755L35.0387 21.3608H32.4018L32.7386 17.5136ZM14.6961 36.7174C12.7008 36.7174 11.0776 35.1024 11.0776 33.1174C11.0776 31.1324 12.7009 29.5175 14.6961 29.5175C16.6912 29.5175 18.3144 31.1324 18.3144 33.1174C18.3144 35.1024 16.6912 36.7174 14.6961 36.7174ZM34.7615 36.7174C32.7664 36.7174 31.1433 35.1024 31.1433 33.1174C31.1433 31.1324 32.7665 29.5175 34.7615 29.5175C36.7567 29.5175 38.3799 31.1324 38.3799 33.1174C38.3799 35.1024 36.7567 36.7174 34.7615 36.7174ZM41.9259 32.4759H39.6256C39.3088 30.0857 37.2492 28.2345 34.7617 28.2345C32.2743 28.2345 30.2147 30.0858 29.8979 32.4759H19.5598C19.243 30.0857 17.1835 28.2345 14.6961 28.2345C12.2086 28.2345 10.1489 30.0858 9.83215 32.4759H7.67133L8.21265 26.918H31.3243V26.9183C31.3247 26.9183 31.3249 26.9183 31.3253 26.9183C31.3469 26.9183 31.3683 26.9171 31.3894 26.915C31.3933 26.9147 31.3972 26.9138 31.4012 26.9133C31.418 26.9113 31.4348 26.9089 31.4513 26.9057C31.4584 26.9042 31.4654 26.9023 31.4724 26.9006C31.4853 26.8975 31.4982 26.8945 31.5107 26.8907C31.5193 26.8882 31.5275 26.8851 31.5358 26.8822C31.5467 26.8784 31.5575 26.8747 31.568 26.8705C31.577 26.8668 31.5857 26.8627 31.5944 26.8586C31.604 26.8542 31.6135 26.8499 31.6227 26.8451C31.6315 26.8404 31.6401 26.8355 31.6488 26.8305C31.6576 26.8254 31.6664 26.8202 31.675 26.8147C31.6833 26.8093 31.6912 26.8037 31.6992 26.798C31.7077 26.7921 31.716 26.7859 31.7242 26.7795C31.7316 26.7736 31.7389 26.7675 31.7461 26.7613C31.7543 26.7543 31.7623 26.7471 31.77 26.7396C31.7765 26.7334 31.7831 26.727 31.7894 26.7204C31.7972 26.7124 31.8046 26.7041 31.812 26.6956C31.8178 26.6889 31.8235 26.6823 31.829 26.6754C31.8361 26.6665 31.8429 26.6572 31.8496 26.6479C31.8547 26.6409 31.8596 26.6339 31.8644 26.6267C31.8706 26.617 31.8767 26.6071 31.8824 26.597C31.8868 26.5895 31.8913 26.582 31.8952 26.5743C31.9006 26.5642 31.9053 26.5539 31.9102 26.5436C31.914 26.5353 31.9178 26.5272 31.9213 26.5186C31.9255 26.5085 31.929 26.4982 31.9327 26.4878C31.9359 26.4787 31.9392 26.4695 31.9421 26.4601C31.9449 26.4502 31.9472 26.44 31.9498 26.43C31.9523 26.4198 31.955 26.4097 31.957 26.3993C31.959 26.3893 31.9602 26.379 31.9617 26.3687C31.9633 26.3581 31.9651 26.3477 31.9661 26.3369C31.9663 26.3354 31.9666 26.3339 31.9667 26.3324L32.2898 22.643H35.6209C37.5957 22.643 38.4863 23.661 39.4291 24.7388C40.2071 25.6281 41.0757 26.6204 42.5521 26.8624C42.3646 28.8349 42.0615 31.3671 41.9259 32.4759ZM42.6623 25.5773C41.7045 25.3831 41.1152 24.7132 40.4014 23.8971C39.5085 22.8767 38.4186 21.6314 36.3292 21.3993L36.6626 17.5904C40.0799 18.0932 42.7109 21.03 42.7109 24.5675C42.7109 24.8078 42.6929 25.157 42.6623 25.5773Z" fill="white"/>
<path d="M14.5 31C13.1215 31 12 32.1215 12 33.5C12 34.8785 13.1215 36 14.5 36C15.8785 36 17 34.8785 17 33.5C17 32.1215 15.8785 31 14.5 31ZM14.5 34.6364C13.8734 34.6364 13.3636 34.1266 13.3636 33.5C13.3636 32.8734 13.8734 32.3636 14.5 32.3636C15.1266 32.3636 15.6364 32.8734 15.6364 33.5C15.6364 34.1266 15.1265 34.6364 14.5 34.6364Z" fill="white"/>
<path d="M34.5 31C33.1215 31 32 32.1215 32 33.5C32 34.8785 33.1215 36 34.5 36C35.8785 36 37 34.8785 37 33.5C37 32.1215 35.8785 31 34.5 31ZM34.5 34.6364C33.8734 34.6364 33.3636 34.1266 33.3636 33.5C33.3636 32.8734 33.8734 32.3636 34.5 32.3636C35.1266 32.3636 35.6364 32.8734 35.6364 33.5C35.6364 34.1266 35.1266 34.6364 34.5 34.6364Z" fill="white"/>
<path d="M5.41935 16H2.58065C2.2599 16 2 16.2239 2 16.5C2 16.7761 2.2599 17 2.58065 17H5.41935C5.7401 17 6 16.7761 6 16.5C6 16.2239 5.7401 16 5.41935 16Z" fill="white"/>
</svg>
