<svg width="17" height="14" viewBox="0 0 17 14" fill="none" xmlns="http://www.w3.org/2000/svg">
<path d="M14.817 0.0490723H2.01699C1.13699 0.0490723 0.424992 0.780322 0.424992 1.67407L0.416992 11.4241C0.416992 12.3178 1.13699 13.0491 2.01699 13.0491H14.817C15.697 13.0491 16.417 12.3178 16.417 11.4241V1.67407C16.417 0.780322 15.697 0.0490723 14.817 0.0490723ZM14.497 3.5022L8.84099 7.09345C8.58499 7.25595 8.24899 7.25595 7.99299 7.09345L2.33699 3.5022C2.25677 3.45646 2.18653 3.39467 2.1305 3.32057C2.07448 3.24646 2.03384 3.16158 2.01105 3.07106C1.98826 2.98054 1.98379 2.88627 1.99792 2.79395C2.01204 2.70162 2.04446 2.61317 2.09322 2.53394C2.14197 2.45471 2.20605 2.38636 2.28157 2.33301C2.35709 2.27966 2.44249 2.24243 2.53259 2.22357C2.62269 2.2047 2.71562 2.20461 2.80576 2.22328C2.89589 2.24195 2.98136 2.27901 3.05699 2.3322L8.41699 5.73657L13.777 2.3322C13.8526 2.27901 13.9381 2.24195 14.0282 2.22328C14.1184 2.20461 14.2113 2.2047 14.3014 2.22357C14.3915 2.24243 14.4769 2.27966 14.5524 2.33301C14.6279 2.38636 14.692 2.45471 14.7408 2.53394C14.7895 2.61317 14.8219 2.70162 14.8361 2.79395C14.8502 2.88627 14.8457 2.98054 14.8229 3.07106C14.8001 3.16158 14.7595 3.24646 14.7035 3.32057C14.6475 3.39467 14.5772 3.45646 14.497 3.5022Z" fill="white"/>
</svg>
