<svg width="35" height="35" viewBox="0 0 35 35" fill="none" xmlns="http://www.w3.org/2000/svg">
<path d="M32.3841 22.6547L28.5049 14.8774C27.9786 13.8214 26.9694 13.0836 25.8061 12.9042L18.0753 11.7115H18.0746C16.4752 11.4672 14.8666 12.264 14.0924 13.6847L11.7157 8.9183C12.308 7.98239 12.6363 6.93 12.6363 5.83331C12.6363 2.61687 10.0263 0 6.81821 0C3.61013 0 1 2.61687 1 5.83331C1 8.8872 3.36086 11.3724 6.34462 11.6187L13.115 25.1947C13.279 25.523 13.1476 25.8 13.083 25.904C13.019 26.0079 12.8309 26.2501 12.4644 26.2501H6.40121C5.02701 26.25 3.9091 27.3708 3.9091 28.7487C3.9091 29.1339 3.99999 29.5206 4.17187 29.8666L4.7131 30.9511C4.80187 31.1285 4.95814 31.2616 5.14708 31.3207L15.4198 34.5393C16.3942 34.8448 17.4063 35 18.4276 35C19.9852 35 21.5448 34.6311 22.9368 33.9326L29.7741 30.5054C31.7642 29.5085 33 27.5026 33 25.2716C32.9999 24.3687 32.7869 23.4637 32.3841 22.6547ZM2.45459 5.83331C2.45459 3.42077 4.41194 1.45831 6.81821 1.45831C9.22447 1.45831 11.1818 3.42077 11.1818 5.83331C11.1818 6.33951 11.0849 6.83361 10.9111 7.30516L9.54479 4.56511C9.03765 3.54826 8.01779 2.91662 6.88359 2.91662C5.24362 2.91669 3.9091 4.25469 3.9091 6.0306C3.9091 6.49202 4.01778 6.95345 4.22301 7.36429L5.53373 9.99264C3.75692 9.43893 2.45459 7.79468 2.45459 5.83331ZM29.1235 29.2009L22.2862 32.6281C20.3139 33.6178 17.9602 33.8094 15.8536 33.1479L5.87566 30.0211L5.47298 29.215C5.40126 29.0704 5.36362 28.9095 5.36362 28.7486C5.36362 28.1747 5.82882 27.7082 6.40128 27.7082H12.4645C13.2265 27.7082 13.9204 27.3202 14.321 26.6708C14.7209 26.0213 14.7571 25.2252 14.4162 24.5424L5.52344 6.71132C5.41905 6.50193 5.36362 6.2663 5.36362 5.89887C5.36362 5.05859 6.04544 4.375 6.88352 4.375C7.46307 4.375 7.98438 4.69759 8.24361 5.21739L13.4403 15.6386C13.6875 16.1328 14.4957 16.1328 14.7415 15.6386L15.3274 14.463C15.7955 13.5273 16.8317 12.9961 17.8537 13.1528L25.5844 14.3455C26.2826 14.453 26.8877 14.8959 27.2037 15.5297L31.083 23.307C31.3856 23.9137 31.5453 24.593 31.5453 25.2716C31.5453 26.9464 30.6171 28.4525 29.1235 29.2009Z" fill="#2F2F2F"/>
</svg>
