<svg width="35" height="35" viewBox="0 0 35 35" fill="none" xmlns="http://www.w3.org/2000/svg">
<path d="M9.5 32C9.77598 32 10 31.776 10 31.5C10 31.224 9.77598 31 9.5 31C9.22402 31 9 31.224 9 31.5C9 31.776 9.22402 32 9.5 32Z" fill="#2F2F2F"/>
<path d="M4.05423 35H30.9459C31.5506 35 32.1218 34.7356 32.5128 34.275C32.9038 33.8139 33.0712 33.208 32.972 32.612L29.1297 9.59461C29.0746 9.2651 28.789 9.02344 28.4544 9.02344H25.0312V3.41797C25.0312 3.23265 24.9534 3.05748 24.8311 2.93518C24.8309 2.93491 24.8309 2.93465 24.8306 2.93465L22.092 0.200272C21.9636 0.0720978 21.7895 0 21.6079 0H13.3922C13.2106 0 13.0365 0.0720978 12.9081 0.200272L10.1695 2.93465C10.1693 2.93465 10.1693 2.93491 10.169 2.93518C10.0465 3.05748 9.96894 3.23212 9.96894 3.41797V9.02344H6.5457C6.21087 9.02344 5.92524 9.2651 5.87042 9.59461L2.0281 32.612C1.92861 33.2077 2.09603 33.8139 2.48703 34.2747C2.87803 34.7356 3.44928 35 4.05423 35ZM20.9233 9.02344H14.0768V4.10156H20.9233V9.02344ZM11.3382 4.10156H12.7075V9.02344H11.3382V4.10156ZM22.2926 4.10156H23.6619V9.02344H22.2926V4.10156ZM13.6757 1.36719H21.3242L22.6935 2.73438H12.3064L13.6757 1.36719ZM3.37867 32.8368L7.12551 10.3906H27.8743L31.6212 32.8365C31.6549 33.0381 31.6006 33.2352 31.4682 33.3912C31.3358 33.5468 31.1505 33.6328 30.9459 33.6328H4.05423C3.84964 33.6328 3.66403 33.5468 3.53192 33.3912C3.39953 33.2352 3.34524 33.0381 3.37867 32.8368Z" fill="#2F2F2F"/>
<path d="M19.625 23.6667H20.25V27C20.25 28.1029 21.0911 29 22.125 29C23.1609 29 24 28.1049 24 27C24 26.4409 24 14.6266 24 13.6667C24 13.2984 23.7202 13 23.375 13C20.9558 13 19 15.0883 19 17.6667V23C19 23.3682 19.2798 23.6667 19.625 23.6667ZM22.125 27.6667C21.7803 27.6667 21.5 27.3677 21.5 27V23.6667H22.75V27C22.75 27.368 22.47 27.6667 22.125 27.6667ZM20.25 17.6667C20.25 16.0344 21.3413 14.7031 22.75 14.3997V22.3333H20.25V17.6667Z" fill="#2F2F2F"/>
<path d="M13.8 19.6V22.3333H13.1C12.7134 22.3333 12.4 22.6318 12.4 23V27C12.4 28.1029 13.342 29 14.5 29C15.658 29 16.6 28.1029 16.6 27V23C16.6 22.6318 16.2866 22.3333 15.9 22.3333H15.2V19.5995C16.7955 19.2898 18 17.9432 18 16.3333V13.6667C18 13.2984 17.6866 13 17.3 13C16.9134 13 16.6 13.2984 16.6 13.6667V16.3333C16.6 17.2023 16.0146 17.9435 15.2 18.2188V13.6667C15.2 13.2984 14.8866 13 14.5 13C14.1134 13 13.8 13.2984 13.8 13.6667V18.2198C13.0029 17.9516 12.4 17.2219 12.4 16.3333V13.6667C12.4 13.2984 12.0866 13 11.7 13C11.3134 13 11 13.2984 11 13.6667V16.3333C11 17.9586 12.2163 19.2953 13.8 19.6ZM15.2 27C15.2 27.3677 14.8858 27.6667 14.5 27.6667C14.1139 27.6667 13.8 27.3677 13.8 27V23.6667H15.2V27Z" fill="#2F2F2F"/>
<path d="M11 31.5C11 31.7762 11.3052 32 11.6818 32H25.3182C25.6948 32 26 31.7762 26 31.5C26 31.2238 25.6948 31 25.3182 31H11.6818C11.3052 31 11 31.2238 11 31.5Z" fill="#2F2F2F"/>
</svg>
