<svg width="17" height="17" viewBox="0 0 17 17" fill="none" xmlns="http://www.w3.org/2000/svg">
<path d="M13.2002 6.97352C11.9202 9.48907 9.85797 11.5424 7.34241 12.8313L5.38686 10.8757C5.14686 10.6357 4.7913 10.5557 4.48019 10.6624C3.48464 10.9913 2.40908 11.1691 1.30686 11.1691C0.817968 11.1691 0.417969 11.5691 0.417969 12.058V15.1602C0.417969 15.6491 0.817968 16.0491 1.30686 16.0491C9.65352 16.0491 16.418 9.28463 16.418 0.937961C16.418 0.449072 16.018 0.0490723 15.5291 0.0490723H12.418C11.9291 0.0490723 11.5291 0.449072 11.5291 0.937961C11.5291 2.04907 11.3513 3.11574 11.0224 4.11129C10.9246 4.42241 10.9957 4.76907 11.2446 5.01796L13.2002 6.97352Z" fill="white"/>
</svg>
