<svg width="45" height="34" viewBox="0 0 45 34" fill="none" xmlns="http://www.w3.org/2000/svg">
<path d="M35.8105 11.2214H33.0404L33.875 1.63854C33.8766 1.62118 33.8768 1.60408 33.8769 1.58698C33.8769 1.58552 33.8771 1.58414 33.8771 1.58268C33.8771 1.58242 33.8771 1.58225 33.8771 1.58199C33.8771 1.32117 33.7197 1.09129 33.4885 0.991342C33.4865 0.990483 33.4846 0.989452 33.4826 0.988593C33.4683 0.982577 33.4534 0.97742 33.4385 0.972436C33.4329 0.970631 33.4275 0.968397 33.422 0.966678C33.4098 0.962983 33.3972 0.960061 33.3847 0.957053C33.376 0.95499 33.3676 0.952498 33.3587 0.95078C33.3478 0.948631 33.3364 0.947256 33.3253 0.945624C33.3148 0.944077 33.3045 0.942272 33.2939 0.941326C33.2921 0.941155 33.2905 0.940811 33.2887 0.940639C33.2773 0.939607 33.2662 0.939779 33.2549 0.93935C33.2473 0.939092 33.2399 0.938232 33.2324 0.938232H33.2243C33.2236 0.938232 33.2229 0.938232 33.2223 0.938232H20.042C19.6862 0.938232 19.3974 1.22698 19.3974 1.58277C19.3974 1.93769 19.6862 2.2273 20.042 2.2273H32.5298L31.2471 16.9549C31.247 16.956 31.247 16.9571 31.2468 16.9582L30.9231 20.6743H8.52697L8.90157 16.8073H13.1659C13.5219 16.8073 13.8104 16.5187 13.8104 16.1627C13.8104 15.8068 13.5219 15.5182 13.1659 15.5182H9.02653L9.8175 7.35452H16.6044C16.9605 7.35452 17.249 7.06594 17.249 6.70999C17.249 6.35404 16.9605 6.06546 16.6044 6.06546H9.94245L10.3144 2.2273H17.4638C17.8187 2.2273 18.1084 1.93769 18.1084 1.58277C18.1084 1.22698 17.8187 0.938232 17.4638 0.938232H9.72941C9.72907 0.938232 9.72881 0.938318 9.72847 0.938318C9.42571 0.938232 9.16308 1.15136 9.09957 1.44681C9.09914 1.44896 9.09837 1.45102 9.09794 1.45317C9.09468 1.46924 9.09253 1.48566 9.09038 1.50216C9.08978 1.5074 9.08866 1.51238 9.08814 1.51763C9.08806 1.51866 9.0878 1.5196 9.08771 1.52063L8.64737 6.06546H0.833987C0.477946 6.06546 0.189453 6.35404 0.189453 6.70999C0.189453 7.06594 0.477946 7.35452 0.833987 7.35452H8.52242L7.73144 15.5182H5.43183C5.07579 15.5182 4.7873 15.8068 4.7873 16.1627C4.7873 16.5187 5.07579 16.8073 5.43183 16.8073H7.60658L7.17586 21.252C7.17577 21.2527 7.17577 21.2534 7.17568 21.254L6.50975 28.1272C6.50967 28.128 6.50958 28.1289 6.50949 28.1296L6.50924 28.1321C6.50838 28.141 6.50846 28.1498 6.50795 28.1587C6.50735 28.1706 6.50614 28.1822 6.50614 28.1942C6.50614 28.1947 6.50623 28.1952 6.50623 28.1958C6.50623 28.2124 6.50743 28.2287 6.50863 28.2451C6.50915 28.2503 6.50898 28.2556 6.50958 28.2608C6.5113 28.2775 6.51413 28.2939 6.51714 28.3102C6.518 28.315 6.51843 28.3199 6.51938 28.3246C6.52187 28.337 6.52539 28.349 6.52866 28.3611C6.53089 28.3696 6.5327 28.3783 6.53527 28.3866C6.53605 28.3889 6.53708 28.3912 6.53777 28.3936C6.56896 28.4895 6.6219 28.5756 6.69099 28.6459C6.69228 28.6472 6.69331 28.6486 6.6946 28.6498C6.70148 28.6567 6.70895 28.6629 6.71617 28.6694C6.7606 28.7102 6.81079 28.7447 6.86571 28.7718C6.87714 28.7775 6.88839 28.7834 6.90008 28.7883C6.9036 28.7898 6.90739 28.7909 6.91099 28.7922C6.92715 28.7987 6.94339 28.8049 6.96015 28.8101C6.9617 28.8105 6.96316 28.8108 6.96471 28.8113C6.98378 28.817 7.00303 28.822 7.02271 28.826C7.02529 28.8265 7.02796 28.8267 7.03045 28.8272C7.04918 28.8307 7.068 28.8337 7.08717 28.8356C7.0876 28.8356 7.08794 28.8357 7.08837 28.8358C7.10951 28.8379 7.13048 28.8389 7.15128 28.8389C7.15154 28.8389 7.15188 28.8388 7.15222 28.8388H10.0215C10.3384 31.241 12.3979 33.1016 14.8853 33.1016C17.3726 33.1016 19.4321 31.241 19.749 28.8388H30.0872C30.4042 31.241 32.4636 33.1016 34.951 33.1016C37.4383 33.1016 39.4979 31.241 39.8149 28.8388H42.6849C42.6853 28.8388 42.6858 28.8389 42.6862 28.8389C42.7077 28.8389 42.7289 28.8376 42.7498 28.8355C42.7536 28.8352 42.7572 28.8344 42.761 28.834C42.7778 28.832 42.7944 28.8297 42.8108 28.8264C42.8178 28.8251 42.8246 28.8232 42.8315 28.8215C42.8442 28.8186 42.8569 28.8155 42.8693 28.8118C42.8777 28.8093 42.8859 28.8064 42.8941 28.8036C42.9047 28.8 42.9153 28.7962 42.9257 28.792C42.9346 28.7885 42.9431 28.7846 42.9518 28.7807C42.9612 28.7763 42.9707 28.7719 42.9799 28.7671C42.9886 28.7627 42.9971 28.758 43.0055 28.7532C43.0143 28.7481 43.0231 28.7427 43.0318 28.7372C43.0399 28.7321 43.0479 28.7268 43.0557 28.7213C43.0644 28.7152 43.0728 28.7088 43.0813 28.7023C43.0883 28.6967 43.0955 28.6912 43.1023 28.6853C43.1112 28.6778 43.1195 28.67 43.1279 28.662C43.1338 28.6565 43.1399 28.6509 43.1456 28.6451C43.1545 28.636 43.163 28.6264 43.1715 28.6167C43.1761 28.6114 43.1808 28.6063 43.1852 28.601C43.1946 28.5893 43.2032 28.5773 43.2118 28.5652C43.2147 28.561 43.218 28.557 43.2208 28.5527C43.2313 28.537 43.2412 28.5208 43.2503 28.5042C43.251 28.5031 43.2517 28.5022 43.2521 28.5011C43.2618 28.4832 43.2708 28.4649 43.2788 28.446C43.281 28.4406 43.2827 28.435 43.2849 28.4296C43.2901 28.4163 43.2953 28.4029 43.2997 28.3891C43.3025 28.3802 43.3046 28.371 43.307 28.3619C43.3099 28.3512 43.3129 28.3405 43.3153 28.3296C43.3174 28.3199 43.3188 28.3099 43.3204 28.3001C43.3219 28.2914 43.3238 28.2829 43.3249 28.274C43.3522 28.0551 43.857 24.0058 44.0824 21.3874C44.0826 21.3849 44.0827 21.3823 44.083 21.3798C44.1479 20.625 44.1895 19.9894 44.1895 19.6003C44.1895 14.9802 40.4307 11.2214 35.8105 11.2214ZM32.9281 12.5106H35.5649L35.2281 16.3775H32.5913L32.9281 12.5106ZM14.8855 31.8124C12.8903 31.8124 11.2671 30.1892 11.2671 28.1941C11.2671 26.199 12.8904 24.5758 14.8855 24.5758C16.8806 24.5758 18.5038 26.199 18.5038 28.1941C18.5038 30.1892 16.8806 31.8124 14.8855 31.8124ZM34.951 31.8124C32.9558 31.8124 31.3327 30.1892 31.3327 28.1941C31.3327 26.199 32.9559 24.5758 34.951 24.5758C36.9462 24.5758 38.5694 26.199 38.5694 28.1941C38.5694 30.1892 36.9462 31.8124 34.951 31.8124ZM42.1153 27.5493H39.815C39.4983 25.1469 37.4387 23.2863 34.9511 23.2863C32.4637 23.2863 30.4042 25.147 30.0874 27.5493H19.7492C19.4325 25.1469 17.373 23.2863 14.8855 23.2863C12.398 23.2863 10.3384 25.147 10.0216 27.5493H7.86078L8.4021 21.963H31.5138V21.9634C31.5141 21.9634 31.5144 21.9634 31.5147 21.9634C31.5363 21.9634 31.5577 21.9622 31.5788 21.96C31.5828 21.9597 31.5867 21.9588 31.5906 21.9583C31.6075 21.9563 31.6242 21.9539 31.6407 21.9506C31.6479 21.9492 31.6548 21.9472 31.6619 21.9455C31.6748 21.9424 31.6876 21.9394 31.7002 21.9356C31.7088 21.933 31.717 21.9299 31.7253 21.927C31.7361 21.9232 31.7469 21.9195 31.7574 21.9152C31.7665 21.9115 31.7751 21.9074 31.7839 21.9033C31.7934 21.8989 31.803 21.8945 31.8122 21.8897C31.8209 21.8851 31.8295 21.8801 31.8382 21.8751C31.8471 21.8699 31.8558 21.8647 31.8644 21.8592C31.8728 21.8538 31.8807 21.8481 31.8887 21.8424C31.8972 21.8364 31.9054 21.8302 31.9137 21.8238C31.9211 21.8179 31.9284 21.8118 31.9356 21.8055C31.9437 21.7984 31.9517 21.7912 31.9595 21.7837C31.966 21.7775 31.9725 21.771 31.9789 21.7644C31.9866 21.7563 31.9941 21.748 32.0015 21.7395C32.0072 21.7328 32.0129 21.7261 32.0184 21.7192C32.0256 21.7102 32.0323 21.7009 32.039 21.6915C32.0441 21.6845 32.049 21.6774 32.0538 21.6702C32.0601 21.6605 32.0661 21.6505 32.0719 21.6404C32.0763 21.6328 32.0807 21.6253 32.0847 21.6175C32.0901 21.6074 32.0947 21.5971 32.0996 21.5867C32.1034 21.5784 32.1073 21.5702 32.1107 21.5616C32.1149 21.5515 32.1185 21.5411 32.1221 21.5307C32.1253 21.5215 32.1287 21.5123 32.1315 21.5028C32.1343 21.4928 32.1367 21.4826 32.1393 21.4725C32.1417 21.4622 32.1445 21.4521 32.1465 21.4417C32.1484 21.4316 32.1496 21.4213 32.1512 21.4109C32.1527 21.4003 32.1545 21.3898 32.1556 21.379C32.1557 21.3774 32.1561 21.376 32.1562 21.3744L32.4792 17.6662H35.8103C37.7851 17.6662 38.6758 18.6894 39.6186 19.7727C40.3966 20.6666 41.2652 21.6639 42.7416 21.9072C42.5541 23.8897 42.251 26.4349 42.1153 27.5493ZM42.8517 20.6155C41.894 20.4203 41.3047 19.7469 40.5908 18.9267C39.698 17.9011 38.608 16.6494 36.5186 16.4162L36.8521 12.5878C40.2693 13.0932 42.9004 16.045 42.9004 19.6005C42.9004 19.8421 42.8823 20.193 42.8517 20.6155Z" fill="#2F2F2F"/>
</svg>
